<svg xmlns="http://www.w3.org/2000/svg" fill="none" viewBox="0 0 160 60" height="60" width="160">
<path fill="#B1B3B6" d="M8.27627 40.309C6.57371 27.0572 21.2049 12.577 62.0408 0C36.1665 10.9674 19.9231 24.0753 21.3405 35.0484C23.5936 52.6996 70.6552 58.1551 126.444 47.2215C138.294 44.9032 149.591 42.0287 159.995 38.7785C144.935 44.0702 127.61 48.8028 109.037 52.4455C48.2255 64.3504 10.4814 57.4859 8.27627 40.309Z" clip-rule="evenodd" fill-rule="evenodd"></path>
<path fill="#ED1C24" d="M0.130586 41.9079C-1.5635 28.6532 13.0564 14.1787 53.8781 1.59326C28.0123 12.5692 11.7802 25.677 13.1835 36.6473C15.4536 54.2985 62.5038 59.7625 118.298 48.8205C130.154 46.4937 141.434 43.6219 151.841 40.369C136.792 45.6692 119.459 50.4018 100.883 54.0331C40.0798 65.9465 2.32724 59.082 0.127761 41.9079" clip-rule="evenodd" fill-rule="evenodd"></path>
<path fill="#ED1C24" d="M143.647 31.6184H138.892L137.954 34.5749H126.819L134.806 13.4081H147.724L155.714 34.5749H144.575L143.647 31.6184ZM139.99 28.1396H142.633L141.244 24.0367L139.99 28.1396ZM113.156 22.5119C113.156 22.5119 115.299 22.5542 115.375 22.5401C116.126 22.5119 117.484 22.0008 117.504 20.106C117.521 17.8244 115.875 17.463 115.282 17.5025H113.156V22.5119ZM101.998 34.4111V12.9365H121.321C121.321 12.9365 127.787 12.9365 128.016 19.4424C128.016 24.079 124.695 26.5893 121.652 26.6995C121.652 26.7503 113.207 26.6995 113.207 26.6995V34.4111H101.995H101.998ZM97.545 13.4081V29.6051C97.545 32.3385 95.385 34.541 92.7338 34.541H77.6819C75.0165 34.541 72.865 32.3385 72.865 29.6051V13.4081L83.5095 13.4392V27.925C83.5095 29.0178 84.2718 29.9016 85.2036 29.9016C86.1353 29.9016 86.909 29.0178 86.909 27.925V13.4392L97.5421 13.4081H97.545ZM52.5106 23.0258C52.5106 23.0258 55.6814 23.263 56.3534 22.9185C57.0395 22.5683 57.7143 22.9185 57.83 20.4759C57.9345 18.0277 56.4691 17.6861 56.4691 17.6861H52.5106V23.0258ZM41.5273 34.75V13.2669H62.9292C62.9292 13.2669 69.042 13.2669 69.2595 19.7813C69.2595 24.4179 65.9927 25.8213 65.9927 25.8213L71.5324 34.1655H58.855L54.7779 27.3179H52.7422V34.75H41.5273Z" clip-rule="evenodd" fill-rule="evenodd"></path>
<path fill="#ED1C24" d="M152.835 9.89973H153.589C153.95 9.89973 154.196 9.84608 154.325 9.73878C154.455 9.63147 154.523 9.49029 154.523 9.31522C154.523 9.20227 154.489 9.10061 154.427 9.01025C154.365 8.91989 154.277 8.85212 154.165 8.80976C154.052 8.76458 153.845 8.74482 153.541 8.74482H152.832V9.89973H152.835ZM152.214 12.0655V8.2196H153.538C153.992 8.2196 154.317 8.25631 154.52 8.3269C154.724 8.3975 154.884 8.52174 155.006 8.69964C155.124 8.87471 155.187 9.0639 155.187 9.26156C155.187 9.54111 155.085 9.78678 154.884 9.99574C154.684 10.2047 154.416 10.3205 154.083 10.3459C154.218 10.4024 154.328 10.4701 154.41 10.5492C154.565 10.6989 154.757 10.953 154.98 11.3116L155.449 12.0655H154.695L154.351 11.4613C154.08 10.984 153.862 10.6876 153.699 10.5633C153.583 10.4786 153.419 10.4334 153.202 10.4334H152.835V12.0655H152.214ZM153.707 7.1014C153.205 7.1014 152.713 7.23129 152.239 7.48825C151.762 7.74521 151.392 8.11512 151.121 8.59516C150.853 9.0752 150.717 9.57218 150.717 10.0917C150.717 10.6113 150.85 11.1026 151.112 11.5742C151.375 12.0458 151.745 12.4157 152.219 12.6811C152.693 12.9437 153.188 13.0764 153.704 13.0764C154.221 13.0764 154.715 12.9437 155.189 12.6811C155.664 12.4185 156.034 12.0486 156.296 11.5742C156.559 11.1026 156.689 10.6085 156.689 10.0917C156.689 9.575 156.553 9.0752 156.288 8.59516C156.02 8.11512 155.65 7.74803 155.17 7.48825C154.692 7.23129 154.204 7.1014 153.704 7.1014H153.707ZM153.707 6.51123C154.309 6.51123 154.893 6.66371 155.466 6.97433C156.036 7.28211 156.485 7.72262 156.802 8.29584C157.121 8.87189 157.282 9.47052 157.282 10.0917C157.282 10.713 157.124 11.3031 156.81 11.8707C156.497 12.4411 156.056 12.8816 155.489 13.1979C154.921 13.5141 154.325 13.6694 153.707 13.6694C153.089 13.6694 152.493 13.5113 151.926 13.1979C151.358 12.8844 150.915 12.4411 150.601 11.8707C150.285 11.3031 150.127 10.7073 150.127 10.0917C150.127 9.47617 150.288 8.87189 150.607 8.29584C150.929 7.72262 151.375 7.28211 151.948 6.97433C152.521 6.66371 153.106 6.51123 153.71 6.51123H153.707Z"></path>
</svg>
